PathFileType	4	(X/Y/Z)	TVC_41_BWA_02_walk_RCNL2025.trc
DataRate	CameraRate	NumFrames	NumMarkers	Units	OrigDataRate	OrigDataStartFrame	OrigNumFrames
100	100	10	27	mm	100	1	531
Frame#	Time	R_Shoulder			L_Shoulder			C7			J_Notch			R_Elbow			L_Elbow			R_Wrist			L_Wrist			R_Asis			L_Asis			R_Psis			L_Psis			Sacral			Thoracic			Sternum			R_Thigh_Lateral			R_Knee_Lateral			R_Shank_Lateral			R_Ankle_Lateral			R_Heel			R_Toe			L_Thigh_Lateral			L_Knee_Lateral			L_Shank_Lateral			L_Ankle_Lateral			L_Heel			L_Toe		
		X1	Y1	Z1	X2	Y2	Z2	X3	Y3	Z3	X4	Y4	Z4	X5	Y5	Z5	X6	Y6	Z6	X7	Y7	Z7	X8	Y8	Z8	X9	Y9	Z9	X10	Y10	Z10	X11	Y11	Z11	X12	Y12	Z12	X13	Y13	Z13	X14	Y14	Z14	X15	Y15	Z15	X16	Y16	Z16	X17	Y17	Z17	X18	Y18	Z18	X19	Y19	Z19	X20	Y20	Z20	X21	Y21	Z21	X22	Y22	Z22	X23	Y23	Z23	X24	Y24	Z24	X25	Y25	Z25	X26	Y26	Z26	X27	Y27	Z27
1	0.00000000	-1467.360229	1260.282837	-28.160896	-1360.067383	1274.021851	-346.283020	-1461.643188	1324.950928	-197.087357	-1347.974731	1215.747070	-159.900833	-1594.431641	991.161804	-33.712669	-1401.053467	985.543640	-425.106049	-1406.499268	916.720917	-10.182280	-1295.896790	807.109222	-411.897293	-1456.880981	886.325134	-63.237194	-1380.857056	852.023438	-294.311371	-1588.645996	904.155090	-186.047791	-1564.285278	886.070312	-270.617401	-1576.465637	895.112701	-228.332596	-1521.185059	1039.334351	-234.526703	-1333.212524	1032.366455	-168.948700	-1528.926270	672.703308	22.854950	-1527.870605	436.333466	-47.022163	-1592.714600	316.954376	12.791777	-1617.095215	107.201256	-51.844448	-1658.002441	91.771568	-108.151657	-1521.319336	44.946144	-31.135599	-1441.480835	588.097412	-394.632568	-1394.561279	404.756897	-297.895050	-1422.742554	267.147522	-357.812744	-1465.285645	61.269970	-286.282715	-1512.327881	44.815468	-247.336685	-1344.874634	34.377831	-263.742432
2	0.01000000	-1466.666626	1260.781372	-30.644571	-1358.993896	1274.746948	-348.605927	-1460.815186	1325.431885	-199.536499	-1346.978516	1216.443115	-162.211945	-1594.206665	991.873657	-36.508629	-1398.830933	986.267761	-427.823181	-1406.839722	916.624573	-12.325027	-1292.865540	808.424683	-414.904999	-1454.313232	887.376770	-65.534195	-1379.364380	852.329895	-296.528503	-1586.651978	903.806030	-187.759995	-1562.314453	885.726868	-272.270813	-1574.483215	894.766449	-230.015404	-1519.741211	1039.658325	-236.964661	-1331.742920	1033.089722	-171.250504	-1522.785889	673.463318	21.549377	-1522.343140	436.815491	-47.789497	-1588.558350	318.184937	12.269201	-1616.695435	109.216957	-52.351944	-1657.667603	94.432922	-108.644295	-1521.908936	45.495899	-31.607178	-1439.689331	588.476746	-396.221069	-1395.309326	404.827545	-299.464142	-1423.616455	267.013794	-358.894348	-1465.499146	61.286743	-286.546509	-1512.339844	44.790684	-247.486954	-1344.862915	34.360752	-263.881226
3	0.02000000	-1465.938110	1261.254883	-33.059135	-1357.965088	1275.420166	-350.890930	-1459.992554	1325.879517	-201.923828	-1345.985474	1217.101562	-164.481445	-1593.902222	992.543884	-39.171894	-1396.746460	986.934998	-430.455719	-1406.996887	916.618561	-14.403217	-1290.014099	809.649323	-417.846313	-1451.791138	888.377258	-67.761063	-1377.890991	852.627380	-298.682526	-1584.692261	903.448853	-189.396637	-1560.411255	885.388611	-273.856262	-1572.551758	894.418732	-231.626450	-1518.329956	1039.954590	-239.310989	-1330.296143	1033.775269	-173.507797	-1516.790649	674.218262	20.283731	-1516.957886	437.299225	-48.456753	-1584.451172	319.376740	11.843612	-1615.992920	111.099380	-52.677280	-1657.020508	96.897247	-108.971039	-1522.153564	46.019344	-31.846498	-1437.988892	588.833801	-397.759369	-1396.025757	404.894165	-300.985107	-1424.461426	266.886749	-359.934448	-1465.711060	61.305569	-286.804779	-1512.352173	44.768238	-247.626343	-1344.856079	34.343563	-264.037048
4	0.03000000	-1465.174683	1261.703369	-35.404579	-1356.980957	1276.041748	-353.137970	-1459.175293	1326.293823	-204.249313	-1344.995728	1217.722412	-166.709320	-1593.518311	993.172546	-41.702515	-1394.799805	987.545471	-433.003693	-1406.970703	916.702301	-16.416957	-1287.342529	810.783051	-420.721222	-1449.314575	889.326599	-69.917793	-1376.437134	852.915894	-300.773468	-1582.766968	903.083496	-190.957779	-1558.575684	885.055420	-275.373840	-1570.671326	894.069458	-233.165810	-1516.951416	1040.223145	-241.565689	-1328.872437	1034.423340	-175.720581	-1510.941406	674.968262	19.058201	-1511.715088	437.784760	-49.023911	-1580.392944	320.529724	11.515244	-1614.987183	112.848343	-52.820309	-1656.060669	99.164124	-109.131561	-1522.052368	46.516438	-31.853559	-1436.380371	589.168701	-399.247589	-1396.710571	404.956726	-302.457794	-1425.277832	266.766388	-360.933044	-1465.921143	61.326389	-287.057434	-1512.364624	44.748222	-247.754898	-1344.854004	34.326302	-264.209839
5	0.04000000	-1464.376465	1262.127075	-37.680908	-1356.041382	1276.611450	-355.347046	-1458.363403	1326.674805	-206.512970	-1344.009155	1218.305786	-168.895554	-1593.054443	993.759277	-44.100616	-1392.990845	988.099121	-435.467163	-1406.760254	916.874207	-18.366560	-1284.850830	811.825928	-423.529739	-1446.883667	890.224915	-72.004372	-1375.002563	853.195496	-302.801361	-1580.876099	902.710022	-192.443588	-1556.808228	884.727295	-276.823761	-1568.842163	893.718658	-234.633675	-1515.605469	1040.463989	-243.728851	-1327.471558	1035.033813	-177.888779	-1505.240723	675.713257	17.873308	-1506.614746	438.272186	-49.490940	-1576.383423	321.643616	11.284765	-1613.676880	114.463387	-52.780628	-1654.786377	101.232468	-109.124908	-1521.602661	46.987087	-31.628414	-1434.865112	589.481445	-400.685944	-1397.363770	405.015167	-303.882080	-1426.065063	266.652679	-361.890015	-1466.129272	61.349068	-287.303986	-1512.377686	44.730877	-247.872818	-1344.856689	34.309032	-264.399323
6	0.05000000	-1463.543579	1262.525879	-39.888115	-1355.146240	1277.129639	-357.518005	-1457.556763	1327.022583	-208.714767	-1343.026001	1218.851685	-171.040054	-1592.510254	994.303894	-46.366478	-1391.319214	988.596191	-437.846222	-1406.364075	917.131104	-20.252715	-1282.538635	812.777985	-426.271835	-1444.498413	891.072327	-74.020767	-1373.587402	853.466309	-304.766327	-1579.020020	902.328552	-193.854446	-1555.109497	884.403992	-278.206451	-1567.064758	893.366272	-236.030449	-1514.292358	1040.677246	-245.800629	-1326.093750	1035.606812	-180.012344	-1499.693848	676.453430	16.730099	-1501.656982	438.761719	-49.857780	-1572.421387	322.717834	11.153509	-1612.059448	115.943581	-52.557476	-1653.194214	103.100182	-108.949203	-1520.799438	47.431118	-31.171333	-1433.445068	589.771851	-402.074738	-1397.984741	405.069519	-305.257507	-1426.822998	266.545502	-362.805176	-1466.334473	61.373425	-287.543762	-1512.391602	44.716717	-247.980377	-1344.863770	34.291847	-264.604919
7	0.06000000	-1462.676147	1262.899780	-42.026203	-1354.295166	1277.596191	-359.650604	-1456.755493	1327.337280	-210.854645	-1342.046265	1219.360107	-173.142685	-1591.884888	994.805725	-48.500595	-1389.784302	989.036987	-440.141083	-1405.779419	917.467804	-22.076627	-1280.405823	813.639252	-428.947540	-1442.159058	891.869385	-75.966881	-1372.191650	853.728699	-306.668518	-1577.199097	901.939331	-195.191010	-1553.480713	884.085205	-279.522675	-1565.339905	893.012268	-237.356842	-1513.011963	1040.863037	-247.781296	-1324.739014	1036.142212	-182.091080	-1494.309204	677.188904	15.630315	-1496.841431	439.253784	-50.124359	-1568.504883	323.751495	11.123705	-1610.130127	117.287521	-52.149696	-1651.278931	104.764091	-108.601349	-1519.633545	47.848297	-30.483141	-1432.123047	590.039551	-403.414307	-1398.573120	405.119629	-306.583435	-1427.550537	266.444733	-363.678162	-1466.536011	61.399220	-287.775482	-1512.406860	44.706432	-248.077789	-1344.875000	34.274841	-264.825470
8	0.07000000	-1461.774780	1263.249023	-44.095181	-1353.487549	1278.011597	-361.744537	-1455.959351	1327.619019	-212.932571	-1341.070068	1219.831299	-175.203247	-1591.177368	995.264038	-50.503757	-1388.385132	989.421814	-442.352020	-1405.002808	917.877106	-23.840112	-1278.451843	814.409729	-431.556885	-1439.866211	892.616638	-77.842537	-1370.815552	853.982971	-308.508179	-1575.414062	901.542480	-196.454193	-1551.922852	883.770447	-280.773346	-1563.668457	892.656464	-238.613770	-1511.764526	1041.021729	-249.671280	-1323.407715	1036.640381	-184.124786	-1489.099121	677.920044	14.576542	-1492.167480	439.748962	-50.290619	-1564.630249	324.743378	11.198624	-1607.882324	118.493378	-51.555798	-1649.032959	106.220032	-108.076912	-1518.092407	48.238426	-29.565676	-1430.901245	590.283752	-404.704865	-1399.127808	405.165405	-307.858826	-1428.246460	266.350067	-364.508392	-1466.732056	61.425983	-287.997284	-1512.423584	44.700687	-248.164856	-1344.889771	34.258095	-265.059052
9	0.08000000	-1460.839844	1263.573730	-46.095078	-1352.722778	1278.375977	-363.799316	-1455.168091	1327.868164	-214.948425	-1340.097412	1220.265259	-177.221451	-1590.386353	995.677979	-52.377102	-1387.120483	989.751404	-444.479492	-1404.031128	918.349335	-25.545556	-1276.676025	815.089630	-434.099976	-1437.620728	893.315063	-79.647469	-1369.459106	854.229675	-310.285675	-1573.665771	901.138367	-197.645294	-1550.437012	883.458923	-281.959717	-1562.051392	892.298645	-239.802505	-1510.550171	1041.153442	-251.471130	-1322.099854	1037.101318	-186.113113	-1484.079224	678.647156	13.572295	-1487.633789	440.248169	-50.356606	-1560.791138	325.691711	11.382548	-1605.307495	119.559158	-50.774136	-1646.446777	107.463272	-107.370193	-1516.159058	48.601482	-28.422373	-1429.781128	590.503357	-405.946411	-1399.647217	405.206665	-309.082367	-1428.909180	266.261078	-365.295044	-1466.920410	61.452953	-288.206696	-1512.441650	44.699924	-248.240860	-1344.907349	34.241680	-265.302948
10	0.09000000	-1459.872437	1263.874146	-48.025925	-1351.999878	1278.689819	-365.814209	-1454.381470	1328.084961	-216.902084	-1339.128784	1220.662231	-179.196915	-1589.510742	996.046448	-54.122189	-1385.988525	990.026611	-446.524078	-1402.862610	918.872620	-27.195822	-1275.077637	815.679047	-436.576904	-1435.423706	893.966003	-81.381264	-1368.122681	854.469604	-312.001465	-1571.955200	900.727112	-198.765991	-1549.023804	883.149353	-283.083099	-1560.489502	891.938232	-240.924545	-1509.369141	1041.258789	-253.181656	-1320.815796	1037.525269	-188.055588	-1479.268433	679.370605	12.622006	-1483.237305	440.752441	-50.322575	-1556.978516	326.594330	11.680564	-1602.395386	120.483040	-49.803207	-1643.509521	108.489151	-106.474487	-1513.813232	48.937878	-27.058844	-1428.762207	590.696899	-407.138550	-1400.129517	405.243042	-310.252197	-1429.536133	266.177124	-366.037079	-1467.098755	61.479240	-288.400787	-1512.460449	44.704281	-248.304565	-1344.926758	34.225666	-265.553436
